# Blender v2.79 (sub 0) OBJ File: 'museum_final.blend'
# www.blender.org
o Map_Final_Mesh.002
v -1.000000 4.000000 13.000000
v 0.000000 4.000000 13.000000
v -1.000000 4.000000 5.000000
v 0.000000 4.000000 5.000000
v -1.000000 4.000000 -6.000000
v 0.000000 4.000000 -6.000000
v 5.000000 4.000000 5.000000
v 5.000000 4.000000 -6.000000
v -6.000000 4.000000 5.000000
v -6.000000 4.000000 -6.000000
v -1.000000 4.000000 -4.000000
v 0.000000 4.000000 -4.000000
v 5.000000 4.000000 -4.000000
v -6.000000 4.000000 -4.000000
v -1.000000 4.000000 -3.010000
v -6.000000 4.000000 -3.010000
v 0.000000 4.000000 -3.010000
v 5.000000 4.000000 -3.010000
v 9.000000 4.000000 -4.000000
v -10.000000 4.000000 -4.000000
v -10.000000 4.000000 -3.010000
v 9.000000 4.000000 -3.010000
v 8.000000 4.000000 -4.000000
v 8.000000 4.000000 -3.010000
v -9.000000 4.000000 -3.010000
v -9.000000 4.000000 -4.000000
v 9.000000 4.000000 -7.000000
v -10.000000 4.000000 -7.000000
v 8.000000 4.000000 -7.000000
v -9.000000 4.000000 -7.000000
v 9.000000 4.000000 -14.000000
v -10.000000 4.000000 -14.000000
v 8.000000 4.000000 -14.000000
v -9.000000 4.000000 -14.000000
v 5.000000 4.000000 -7.000000
v 5.000000 4.000000 -14.000000
v 12.000000 4.000000 -7.000000
v 12.000000 4.000000 -14.000000
v -6.000000 4.000000 -7.000000
v -6.000000 4.000000 -14.000000
v -13.000000 4.000000 -7.000000
v -13.000000 4.000000 -14.000000
v -10.000000 4.000000 -12.000000
v -9.000000 4.000000 -12.000000
v -6.000000 4.000000 -12.000000
v -13.000000 4.000000 -12.000000
v -10.000000 4.000000 -10.950000
v -13.000000 4.000000 -10.950000
v -9.000000 4.000000 -10.950000
v -6.000000 4.000000 -10.950000
v 8.000000 4.000000 -12.000000
v 9.000000 4.000000 -12.000000
v 5.000000 4.000000 -12.000000
v 12.000000 4.000000 -12.000000
v 8.000000 4.000000 -10.950000
v 5.000000 4.000000 -10.950000
v 9.000000 4.000000 -10.950000
v 12.000000 4.000000 -10.950000
v -5.000000 4.000000 -12.000000
v -5.000000 4.000000 -10.950000
v 4.000000 4.000000 -12.000000
v 4.000000 4.000000 -10.950000
v 4.000000 4.000000 -12.000000
v 4.000000 4.000000 -10.950000
v -5.000000 4.000000 -18.000000
v 4.000000 4.000000 -18.000000
v -5.000000 4.000000 -6.950000
v 4.000000 4.000000 -6.950000
v -1.000000 0.000000 13.000000
v 0.000000 0.000000 13.000000
v -1.000000 0.000000 5.000000
v 0.000000 0.000000 5.000000
v -1.000000 0.000000 -6.000000
v 0.000000 0.000000 -6.000000
v 5.000000 0.000000 5.000000
v 5.000000 0.000000 -6.000000
v -6.000000 0.000000 5.000000
v -6.000000 0.000000 -6.000000
v -1.000000 0.000000 -4.000000
v 0.000000 0.000000 -4.000000
v 5.000000 0.000000 -4.000000
v -6.000000 0.000000 -4.000000
v -1.000000 0.000000 -3.010000
v -6.000000 0.000000 -3.010000
v 0.000000 0.000000 -3.010000
v 5.000000 0.000000 -3.010000
v 9.000000 0.000000 -4.000000
v -10.000000 0.000000 -4.000000
v -10.000000 0.000000 -3.010000
v 9.000000 0.000000 -3.010000
v 8.000000 0.000000 -4.000000
v 8.000000 0.000000 -3.010000
v -9.000000 0.000000 -3.010000
v -9.000000 0.000000 -4.000000
v 9.000000 0.000000 -7.000000
v -10.000000 0.000000 -7.000000
v 8.000000 0.000000 -7.000000
v -9.000000 0.000000 -7.000000
v 9.000000 0.000000 -14.000000
v -10.000000 0.000000 -14.000000
v 8.000000 0.000000 -14.000000
v -9.000000 0.000000 -14.000000
v 5.000000 0.000000 -7.000000
v 5.000000 0.000000 -14.000000
v 12.000000 0.000000 -7.000000
v 12.000000 0.000000 -14.000000
v -6.000000 0.000000 -7.000000
v -6.000000 0.000000 -14.000000
v -13.000000 0.000000 -7.000000
v -13.000000 0.000000 -14.000000
v -10.000000 0.000000 -12.000000
v -9.000000 0.000000 -12.000000
v -6.000000 0.000000 -12.000000
v -13.000000 0.000000 -12.000000
v -10.000000 0.000000 -10.950000
v -13.000000 0.000000 -10.950000
v -9.000000 0.000000 -10.950000
v -6.000000 0.000000 -10.950000
v 8.000000 0.000000 -12.000000
v 9.000000 0.000000 -12.000000
v 5.000000 0.000000 -12.000000
v 12.000000 0.000000 -12.000000
v 8.000000 0.000000 -10.950000
v 5.000000 0.000000 -10.950000
v 9.000000 0.000000 -10.950000
v 12.000000 0.000000 -10.950000
v -5.000000 0.000000 -12.000000
v -5.000000 0.000000 -10.950000
v 4.000000 0.000000 -12.000000
v 4.000000 0.000000 -10.950000
v 4.000000 0.000000 -12.000000
v 4.000000 0.000000 -10.950000
v -5.000000 0.000000 -18.000000
v 4.000000 0.000000 -18.000000
v -5.000000 0.000000 -6.950000
v 4.000000 0.000000 -6.950000
vt -2.000000 10.000000
vt 0.000000 26.000000
vt -2.000000 26.000000
vt -2.000000 -12.000000
vt 0.000000 -8.000000
vt -2.000000 -8.000000
vt 10.000000 -6.020000
vt 0.000000 10.000000
vt 0.000000 -6.020000
vt -12.000000 -8.000000
vt -2.000000 -6.020000
vt 10.000000 -12.000000
vt 0.000000 -12.000000
vt -12.000000 -6.020000
vt 10.000000 -8.000000
vt -12.000000 10.000000
vt -20.000000 -6.020000
vt -18.000000 -8.000000
vt -18.000000 -6.020000
vt 18.000000 -8.000000
vt 16.000000 -6.020000
vt 16.000000 -8.000000
vt 16.000000 -14.000000
vt -20.000000 -14.000000
vt -20.000000 -8.000000
vt 16.000000 -28.000000
vt 18.000000 -24.000000
vt 16.000000 -24.000000
vt -20.000000 -28.000000
vt -18.000000 -24.000000
vt -20.000000 -24.000000
vt 10.000000 -24.000000
vt 24.000000 -21.900000
vt 18.000000 -14.000000
vt 18.000000 -21.900000
vt -12.000000 -21.900000
vt -18.000000 -14.000000
vt -18.000000 -21.900000
vt -26.000000 -24.000000
vt -20.000000 -21.900000
vt -12.000000 -28.000000
vt -18.000000 -28.000000
vt -26.000000 -21.900000
vt -12.000000 -24.000000
vt -26.000000 -14.000000
vt 16.000000 -21.900000
vt 10.000000 -21.900000
vt 24.000000 -28.000000
vt 18.000000 -28.000000
vt 24.000000 -24.000000
vt 10.000000 -14.000000
vt -10.000000 -24.000000
vt 8.000000 -21.900000
vt 8.000000 -24.000000
vt -10.000000 -21.900000
vt -10.000000 -36.000000
vt 8.000000 -13.900000
vt 8.000000 -21.900000
vt -2.000000 -26.000000
vt 0.000000 -10.000000
vt -2.000000 -10.000000
vt -2.000000 8.000000
vt 0.000000 12.000000
vt -2.000000 12.000000
vt 0.000000 6.020000
vt 10.000000 -10.000000
vt 10.000000 6.020000
vt -12.000000 12.000000
vt -12.000000 8.000000
vt -2.000000 6.020000
vt 0.000000 8.000000
vt 10.000000 8.000000
vt 10.000000 12.000000
vt -12.000000 6.020000
vt -12.000000 -10.000000
vt -18.000000 6.020000
vt -20.000000 8.000000
vt -20.000000 6.020000
vt 16.000000 8.000000
vt 18.000000 6.020000
vt 18.000000 8.000000
vt 16.000000 6.020000
vt -18.000000 8.000000
vt 18.000000 14.000000
vt 16.000000 14.000000
vt -18.000000 14.000000
vt -20.000000 14.000000
vt 16.000000 24.000000
vt 18.000000 28.000000
vt 16.000000 28.000000
vt -20.000000 24.000000
vt -18.000000 28.000000
vt -20.000000 28.000000
vt 10.000000 28.000000
vt 10.000000 24.000000
vt 18.000000 21.900000
vt 24.000000 14.000000
vt 24.000000 21.900000
vt -18.000000 21.900000
vt -12.000000 14.000000
vt -12.000000 21.900000
vt -26.000000 28.000000
vt -26.000000 24.000000
vt -20.000000 21.900000
vt -18.000000 24.000000
vt -12.000000 24.000000
vt -12.000000 28.000000
vt -26.000000 21.900000
vt -26.000000 14.000000
vt 16.000000 21.900000
vt 18.000000 24.000000
vt 10.000000 21.900000
vt 24.000000 24.000000
vt 24.000000 28.000000
vt 10.000000 14.000000
vt -10.000000 21.900000
vt -10.000000 24.000000
vt 8.000000 24.000000
vt 8.000000 21.900000
vt 8.000000 21.900000
vt 8.000000 24.000000
vt 8.000000 36.000000
vt -10.000000 36.000000
vt -10.000000 13.900000
vt 8.000000 13.900000
vt -26.000000 0.000000
vt -10.000000 8.000000
vt -26.000000 8.000000
vt -0.000000 0.000000
vt 2.000000 8.000000
vt -0.000000 8.000000
vt 10.000000 0.000000
vt 26.000000 8.000000
vt 10.000000 8.000000
vt -2.000000 0.000000
vt 0.000000 8.000000
vt -2.000000 8.000000
vt -12.000000 0.000000
vt -8.000000 8.000000
vt -12.000000 8.000000
vt 0.000000 0.000000
vt 10.000000 8.000000
vt -10.000000 0.000000
vt -0.000000 8.000000
vt -10.000000 8.000000
vt -10.000000 0.000000
vt 6.020000 8.000000
vt -10.000000 8.000000
vt 2.000000 0.000000
vt 12.000000 8.000000
vt 2.000000 8.000000
vt -12.000000 0.000000
vt -12.000000 8.000000
vt 8.000000 0.000000
vt 12.000000 8.000000
vt 8.000000 8.000000
vt -6.020000 0.000000
vt 10.000000 8.000000
vt -6.020000 8.000000
vt -8.000000 0.000000
vt -6.020000 8.000001
vt -8.000000 8.000001
vt 6.020000 0.000000
vt 8.000000 8.000001
vt 6.020000 8.000001
vt 12.000000 0.000000
vt 18.000000 8.000001
vt 12.000000 8.000000
vt 10.000000 0.000000
vt 16.000000 8.000000
vt 10.000000 8.000000
vt -18.000000 0.000000
vt -16.000000 8.000001
vt -18.000000 8.000001
vt -16.000000 0.000000
vt -10.000000 8.000000
vt 18.000000 0.000000
vt 20.000000 8.000001
vt -18.000000 0.000000
vt -12.000000 8.000000
vt -18.000000 8.000000
vt 8.000000 0.000000
vt 14.000000 8.000000
vt 8.000000 8.000000
vt -14.000000 0.000000
vt -14.000000 8.000000
vt 8.000000 0.000000
vt 14.000000 8.000000
vt -14.000000 0.000000
vt -8.000000 8.000000
vt -14.000000 8.000000
vt -20.000000 0.000000
vt -18.000000 8.000000
vt -20.000000 8.000000
vt 16.000000 0.000000
vt 18.000000 8.000000
vt 16.000000 8.000000
vt 14.000000 0.000000
vt 21.900000 8.000000
vt 14.000000 8.000000
vt -16.000000 0.000000
vt -10.000000 8.000000
vt -16.000000 8.000000
vt 10.000000 0.000000
vt 10.000000 8.000000
vt -28.000000 0.000000
vt -24.000000 8.000000
vt -28.000000 8.000000
vt 18.000000 0.000000
vt 24.000000 8.000000
vt -24.000000 0.000000
vt -18.000000 8.000000
vt -24.000000 8.000000
vt -28.000000 0.000000
vt -24.000000 8.000000
vt -28.000000 8.000000
vt -18.000000 0.000000
vt -12.000000 8.000000
vt 12.000000 0.000000
vt 18.000000 8.000000
vt 12.000000 8.000000
vt 14.000000 0.000000
vt 21.900000 8.000000
vt 14.000000 8.000000
vt 20.000000 0.000000
vt 26.000000 8.000000
vt 20.000000 8.000000
vt -26.000000 0.000000
vt -26.000000 8.000000
vt 24.000000 0.000000
vt 28.000000 8.000000
vt 24.000000 8.000000
vt 21.900000 0.000000
vt -21.900000 0.000000
vt -14.000000 8.000000
vt -21.900000 8.000000
vt 24.000000 0.000000
vt 28.000000 8.000000
vt 24.000000 8.000000
vt -24.000000 0.000000
vt -21.900000 8.000000
vt -21.900000 0.000000
vt -14.000000 8.000000
vt -12.000000 0.000000
vt -10.000000 8.000000
vt -12.000000 8.000000
vt 10.000000 0.000000
vt 12.000000 8.000000
vt 10.000000 8.000000
vt -10.000000 0.000000
vt -8.000000 8.000000
vt -10.000000 8.000000
vt 8.000000 0.000000
vt 10.000000 8.000000
vt 8.000000 8.000000
vt -10.000000 0.000000
vt 8.000000 8.000000
vt -10.000000 8.000000
vt 24.000000 0.000000
vt 36.000000 8.000000
vt 24.000000 8.000000
vt -36.000000 0.000000
vt -24.000000 8.000000
vt -36.000000 8.000000
vt -8.000000 0.000000
vt 10.000000 8.000000
vt -8.000000 8.000000
vt -21.900000 0.000000
vt -13.900000 8.000000
vt -21.900000 8.000000
vt 13.900000 0.000000
vt 21.900000 8.000000
vt 13.900000 8.000000
vt 10.000000 10.000000
vt -12.000000 -12.000000
vt 18.000000 -6.020000
vt 10.000000 -28.000000
vt 24.000000 -14.000000
vt -12.000000 -14.000000
vt -26.000000 -28.000000
vt 8.000000 -24.000000
vt 8.000000 -36.000000
vt -10.000000 -13.900000
vt 0.000000 -26.000000
vt -10.000000 0.000000
vt 2.000000 0.000000
vt 26.000000 0.000000
vt -8.000000 0.000000
vt 10.000000 0.000000
vt -0.000000 0.000000
vt 6.020000 0.000000
vt 12.000000 0.000000
vt 12.000000 0.000000
vt 10.000000 0.000000
vt -6.020000 0.000000
vt 16.000000 0.000000
vt -10.000000 0.000000
vt 20.000000 0.000000
vt -12.000000 0.000000
vt 14.000000 0.000000
vt 14.000000 0.000000
vt -8.000000 0.000000
vt 21.900000 0.000000
vt -10.000000 0.000000
vt 24.000000 0.000000
vt -18.000000 0.000000
vt -24.000000 0.000000
vt -12.000000 0.000000
vt 18.000000 0.000000
vt 26.000000 0.000000
vt 28.000000 0.000000
vt -14.000000 0.000000
vt 28.000000 0.000000
vt -14.000000 0.000000
vt -10.000000 0.000000
vt 12.000000 0.000000
vt -8.000000 0.000000
vt 10.000000 0.000000
vt 8.000000 0.000000
vt 36.000000 0.000000
vt -24.000000 0.000000
vt 10.000000 0.000000
vt -13.900000 0.000000
vt 21.900000 0.000000
vn 0.0000 -1.0000 0.0000
vn 0.0000 1.0000 0.0000
vn 1.0000 0.0000 0.0000
vn 0.0000 0.0000 -1.0000
vn -1.0000 0.0000 0.0000
vn 0.0000 0.0000 1.0000
s off
f 3/1/1 2/2/1 1/3/1
f 5/4/1 12/5/1 11/6/1
f 18/7/1 4/8/1 17/9/1
f 14/10/1 5/4/1 11/6/1
f 11/6/1 17/9/1 15/11/1
f 8/12/1 12/5/1 6/13/1
f 16/14/1 11/6/1 15/11/1
f 13/15/1 17/9/1 12/5/1
f 15/11/1 4/8/1 3/1/1
f 9/16/1 15/11/1 3/1/1
f 21/17/1 26/18/1 25/19/1
f 19/20/1 24/21/1 23/22/1
f 23/22/1 18/7/1 13/15/1
f 25/19/1 14/10/1 16/14/1
f 29/23/1 19/20/1 23/22/1
f 28/24/1 26/18/1 20/25/1
f 33/26/1 52/27/1 51/28/1
f 32/29/1 44/30/1 43/31/1
f 53/32/1 33/26/1 51/28/1
f 58/33/1 27/34/1 57/35/1
f 50/36/1 30/37/1 49/38/1
f 46/39/1 32/29/1 43/31/1
f 43/31/1 49/38/1 47/40/1
f 40/41/1 44/30/1 34/42/1
f 48/43/1 43/31/1 47/40/1
f 45/44/1 49/38/1 44/30/1
f 47/40/1 30/37/1 28/24/1
f 41/45/1 47/40/1 28/24/1
f 51/28/1 57/35/1 55/46/1
f 56/47/1 51/28/1 55/46/1
f 38/48/1 52/27/1 31/49/1
f 54/50/1 57/35/1 52/27/1
f 55/46/1 27/34/1 29/23/1
f 35/51/1 55/46/1 29/23/1
f 59/52/1 50/36/1 45/44/1
f 62/53/1 53/32/1 56/47/1
f 63/54/1 60/55/1 59/52/1
f 65/56/1 63/54/1 59/52/1
f 68/57/1 60/55/1 64/58/1
f 69/59/2 72/60/2 71/61/2
f 79/62/2 74/63/2 73/64/2
f 85/65/2 75/66/2 86/67/2
f 79/62/2 78/68/2 82/69/2
f 83/70/2 80/71/2 79/62/2
f 74/63/2 81/72/2 76/73/2
f 83/70/2 82/69/2 84/74/2
f 80/71/2 86/67/2 81/72/2
f 71/61/2 85/65/2 83/70/2
f 71/61/2 84/74/2 77/75/2
f 93/76/2 88/77/2 89/78/2
f 91/79/2 90/80/2 87/81/2
f 81/72/2 92/82/2 91/79/2
f 84/74/2 94/83/2 93/76/2
f 91/79/2 95/84/2 97/85/2
f 88/77/2 98/86/2 96/87/2
f 119/88/2 99/89/2 101/90/2
f 111/91/2 102/92/2 100/93/2
f 119/88/2 104/94/2 121/95/2
f 125/96/2 105/97/2 126/98/2
f 117/99/2 107/100/2 118/101/2
f 111/91/2 110/102/2 114/103/2
f 115/104/2 112/105/2 111/91/2
f 102/92/2 113/106/2 108/107/2
f 115/104/2 114/103/2 116/108/2
f 112/105/2 118/101/2 113/106/2
f 96/87/2 117/99/2 115/104/2
f 96/87/2 116/108/2 109/109/2
f 123/110/2 120/111/2 119/88/2
f 123/110/2 121/95/2 124/112/2
f 99/89/2 122/113/2 106/114/2
f 120/111/2 126/98/2 122/113/2
f 97/85/2 125/96/2 123/110/2
f 97/85/2 124/112/2 103/115/2
f 113/106/2 128/116/2 127/117/2
f 124/112/2 129/118/2 130/119/2
f 127/117/2 132/120/2 131/121/2
f 127/117/2 134/122/2 133/123/2
f 132/120/2 135/124/2 136/125/2
f 69/126/3 3/127/3 1/128/3
f 70/129/4 1/130/4 2/131/4
f 72/132/5 2/133/5 4/134/5
f 73/135/6 6/136/6 5/137/6
f 76/138/5 13/139/5 8/140/5
f 74/141/6 8/142/6 6/136/6
f 75/143/4 4/144/4 7/145/4
f 77/146/3 16/147/3 9/148/3
f 71/149/4 9/150/4 3/151/4
f 78/152/6 5/137/6 10/153/6
f 82/154/3 10/155/3 14/156/3
f 86/157/5 7/158/5 18/159/5
f 87/160/5 22/161/5 19/162/5
f 89/163/3 20/164/3 21/165/3
f 84/166/4 25/167/4 16/168/4
f 81/169/6 23/170/6 13/171/6
f 90/172/4 24/173/4 22/174/4
f 92/175/4 18/176/4 24/173/4
f 93/177/4 21/178/4 25/167/4
f 94/179/6 14/180/6 26/181/6
f 91/182/3 29/183/3 23/184/3
f 95/185/5 19/162/5 27/186/5
f 88/187/3 28/188/3 20/164/3
f 98/189/5 26/190/5 30/191/5
f 100/192/6 34/193/6 32/194/6
f 101/195/6 31/196/6 33/197/6
f 103/198/3 56/199/3 35/200/3
f 97/201/4 35/202/4 29/203/4
f 104/204/6 33/197/6 36/205/6
f 106/206/5 54/207/5 38/208/5
f 99/209/6 38/210/6 31/196/6
f 105/211/4 27/212/4 37/213/4
f 108/214/5 45/215/5 40/216/5
f 102/217/6 40/218/6 34/193/6
f 107/219/4 30/220/4 39/221/4
f 109/222/3 48/223/3 41/224/3
f 96/225/4 41/226/4 28/227/4
f 110/228/6 32/194/6 42/229/6
f 114/230/3 42/231/3 46/232/3
f 116/233/3 46/232/3 48/223/3
f 118/234/5 39/235/5 50/236/5
f 121/237/3 36/238/3 53/239/3
f 122/240/5 58/241/5 54/207/5
f 126/242/5 37/243/5 58/241/5
f 113/244/6 59/245/6 45/246/6
f 128/247/4 50/248/4 60/249/4
f 124/250/4 62/251/4 56/252/4
f 129/253/6 53/254/6 61/255/6
f 133/256/6 66/257/6 65/258/6
f 127/259/3 65/260/3 59/261/3
f 134/262/5 63/263/5 66/264/5
f 136/265/4 67/266/4 68/267/4
f 132/268/5 68/269/5 64/270/5
f 135/271/3 60/272/3 67/273/3
f 3/1/1 4/8/1 2/2/1
f 5/4/1 6/13/1 12/5/1
f 18/7/1 7/274/1 4/8/1
f 14/10/1 10/275/1 5/4/1
f 11/6/1 12/5/1 17/9/1
f 8/12/1 13/15/1 12/5/1
f 16/14/1 14/10/1 11/6/1
f 13/15/1 18/7/1 17/9/1
f 15/11/1 17/9/1 4/8/1
f 9/16/1 16/14/1 15/11/1
f 21/17/1 20/25/1 26/18/1
f 19/20/1 22/276/1 24/21/1
f 23/22/1 24/21/1 18/7/1
f 25/19/1 26/18/1 14/10/1
f 29/23/1 27/34/1 19/20/1
f 28/24/1 30/37/1 26/18/1
f 33/26/1 31/49/1 52/27/1
f 32/29/1 34/42/1 44/30/1
f 53/32/1 36/277/1 33/26/1
f 58/33/1 37/278/1 27/34/1
f 50/36/1 39/279/1 30/37/1
f 46/39/1 42/280/1 32/29/1
f 43/31/1 44/30/1 49/38/1
f 40/41/1 45/44/1 44/30/1
f 48/43/1 46/39/1 43/31/1
f 45/44/1 50/36/1 49/38/1
f 47/40/1 49/38/1 30/37/1
f 41/45/1 48/43/1 47/40/1
f 51/28/1 52/27/1 57/35/1
f 56/47/1 53/32/1 51/28/1
f 38/48/1 54/50/1 52/27/1
f 54/50/1 58/33/1 57/35/1
f 55/46/1 57/35/1 27/34/1
f 35/51/1 56/47/1 55/46/1
f 59/52/1 60/55/1 50/36/1
f 62/53/1 61/281/1 53/32/1
f 63/54/1 64/58/1 60/55/1
f 65/56/1 66/282/1 63/54/1
f 68/57/1 67/283/1 60/55/1
f 69/59/2 70/284/2 72/60/2
f 79/62/2 80/71/2 74/63/2
f 85/65/2 72/60/2 75/66/2
f 79/62/2 73/64/2 78/68/2
f 83/70/2 85/65/2 80/71/2
f 74/63/2 80/71/2 81/72/2
f 83/70/2 79/62/2 82/69/2
f 80/71/2 85/65/2 86/67/2
f 71/61/2 72/60/2 85/65/2
f 71/61/2 83/70/2 84/74/2
f 93/76/2 94/83/2 88/77/2
f 91/79/2 92/82/2 90/80/2
f 81/72/2 86/67/2 92/82/2
f 84/74/2 82/69/2 94/83/2
f 91/79/2 87/81/2 95/84/2
f 88/77/2 94/83/2 98/86/2
f 119/88/2 120/111/2 99/89/2
f 111/91/2 112/105/2 102/92/2
f 119/88/2 101/90/2 104/94/2
f 125/96/2 95/84/2 105/97/2
f 117/99/2 98/86/2 107/100/2
f 111/91/2 100/93/2 110/102/2
f 115/104/2 117/99/2 112/105/2
f 102/92/2 112/105/2 113/106/2
f 115/104/2 111/91/2 114/103/2
f 112/105/2 117/99/2 118/101/2
f 96/87/2 98/86/2 117/99/2
f 96/87/2 115/104/2 116/108/2
f 123/110/2 125/96/2 120/111/2
f 123/110/2 119/88/2 121/95/2
f 99/89/2 120/111/2 122/113/2
f 120/111/2 125/96/2 126/98/2
f 97/85/2 95/84/2 125/96/2
f 97/85/2 123/110/2 124/112/2
f 113/106/2 118/101/2 128/116/2
f 124/112/2 121/95/2 129/118/2
f 127/117/2 128/116/2 132/120/2
f 127/117/2 131/121/2 134/122/2
f 132/120/2 128/116/2 135/124/2
f 69/126/3 71/285/3 3/127/3
f 70/129/4 69/286/4 1/130/4
f 72/132/5 70/287/5 2/133/5
f 73/135/6 74/141/6 6/136/6
f 76/138/5 81/288/5 13/139/5
f 74/141/6 76/289/6 8/142/6
f 75/143/4 72/290/4 4/144/4
f 77/146/3 84/291/3 16/147/3
f 71/149/4 77/292/4 9/150/4
f 78/152/6 73/135/6 5/137/6
f 82/154/3 78/293/3 10/155/3
f 86/157/5 75/294/5 7/158/5
f 87/160/5 90/295/5 22/161/5
f 89/163/3 88/187/3 20/164/3
f 84/166/4 93/177/4 25/167/4
f 81/169/6 91/296/6 23/170/6
f 90/172/4 92/175/4 24/173/4
f 92/175/4 86/297/4 18/176/4
f 93/177/4 89/298/4 21/178/4
f 94/179/6 82/299/6 14/180/6
f 91/182/3 97/300/3 29/183/3
f 95/185/5 87/160/5 19/162/5
f 88/187/3 96/301/3 28/188/3
f 98/189/5 94/302/5 26/190/5
f 100/192/6 102/217/6 34/193/6
f 101/195/6 99/209/6 31/196/6
f 103/198/3 124/303/3 56/199/3
f 97/201/4 103/304/4 35/202/4
f 104/204/6 101/195/6 33/197/6
f 106/206/5 122/240/5 54/207/5
f 99/209/6 106/305/6 38/210/6
f 105/211/4 95/306/4 27/212/4
f 108/214/5 113/307/5 45/215/5
f 102/217/6 108/308/6 40/218/6
f 107/219/4 98/309/4 30/220/4
f 109/222/3 116/233/3 48/223/3
f 96/225/4 109/310/4 41/226/4
f 110/228/6 100/192/6 32/194/6
f 114/230/3 110/311/3 42/231/3
f 116/233/3 114/230/3 46/232/3
f 118/234/5 107/312/5 39/235/5
f 121/237/3 104/313/3 36/238/3
f 122/240/5 126/242/5 58/241/5
f 126/242/5 105/314/5 37/243/5
f 113/244/6 127/315/6 59/245/6
f 128/247/4 118/316/4 50/248/4
f 124/250/4 130/317/4 62/251/4
f 129/253/6 121/318/6 53/254/6
f 133/256/6 134/319/6 66/257/6
f 127/259/3 133/320/3 65/260/3
f 134/262/5 131/321/5 63/263/5
f 136/265/4 135/322/4 67/266/4
f 132/268/5 136/323/5 68/269/5
f 135/271/3 128/324/3 60/272/3
